<svg xmlns="http://www.w3.org/2000/svg" width="15" height="11.833" viewBox="0 0 15 11.833"><defs><style>.a{fill:#023e73;}</style></defs><path class="a" d="M9.833,74.667h1.25a.448.448,0,0,0,.417-.417V69.875a.448.448,0,0,0-.417-.417H9.833a.448.448,0,0,0-.417.417V74.25A.448.448,0,0,0,9.833,74.667Zm3.125,0h1.25a.448.448,0,0,0,.417-.417v-7.5a.448.448,0,0,0-.417-.417h-1.25a.448.448,0,0,0-.417.417v7.5A.448.448,0,0,0,12.958,74.667Zm-9.375,0h1.25a.448.448,0,0,0,.417-.417V71.958a.448.448,0,0,0-.417-.417H3.583a.448.448,0,0,0-.417.417V74.25A.448.448,0,0,0,3.583,74.667Zm3.125,0h1.25a.448.448,0,0,0,.417-.417V67.792a.448.448,0,0,0-.417-.417H6.708a.448.448,0,0,0-.417.417V74.25A.448.448,0,0,0,6.708,74.667Zm7.771,1.083H2.083V66.521A.521.521,0,0,0,1.562,66H.521A.521.521,0,0,0,0,66.521V76.792a1.042,1.042,0,0,0,1.042,1.042H14.479A.521.521,0,0,0,15,77.313V76.271A.521.521,0,0,0,14.479,75.75Z" transform="translate(0 -66)"/></svg>