<svg xmlns="http://www.w3.org/2000/svg" width="15" height="12.636" viewBox="0 0 15 12.636"><defs><style>.a{fill:#fff;}</style></defs><path class="a" d="M3.732,57.468H1.788a.486.486,0,0,0-.486.486V59.9a.486.486,0,0,0,.486.486H3.732a.486.486,0,0,0,.486-.486V57.954A.486.486,0,0,0,3.732,57.468Zm0-9.72H1.788a.486.486,0,0,0-.486.486v1.944a.486.486,0,0,0,.486.486H3.732a.486.486,0,0,0,.486-.486V48.233A.486.486,0,0,0,3.732,47.747Zm0,4.86H1.788a.486.486,0,0,0-.486.486v1.944a.486.486,0,0,0,.486.486H3.732a.486.486,0,0,0,.486-.486V53.094A.486.486,0,0,0,3.732,52.608Zm12.084,5.029H6.1a.486.486,0,0,0-.486.486v1.4A.486.486,0,0,0,6.1,60h9.72a.486.486,0,0,0,.486-.486v-1.4A.486.486,0,0,0,15.816,57.636Zm0-9.72H6.1a.486.486,0,0,0-.486.486v1.4a.486.486,0,0,0,.486.486h9.72A.486.486,0,0,0,16.3,49.8V48.4A.486.486,0,0,0,15.816,47.916Zm0,4.86H6.1a.486.486,0,0,0-.486.486v1.4a.486.486,0,0,0,.486.486h9.72a.486.486,0,0,0,.486-.486v-1.4A.486.486,0,0,0,15.816,52.776Z" transform="translate(-1.302 -47.747)"/></svg>